<svg width="363" height="397" viewBox="0 0 363 397" fill="none" xmlns="http://www.w3.org/2000/svg">
<g filter="url(#filter0_d_86_3)">
<path d="M28.4414 264.579H44.8477V304.433H59.8867L82.6504 264.579H101.586L74.3789 311.747L103.158 362.128H83.9492L59.8867 319.677H44.8477V362.128H28.4414V264.579ZM118.266 264.579H134.672V362.128H118.266V264.579ZM159.555 264.579H186.762L222.309 346.884H222.65C222.605 345.243 222.559 343.58 222.514 341.894C222.468 340.435 222.445 338.863 222.445 337.177C222.445 335.491 222.445 333.873 222.445 332.323V264.579H238.646V362.128H212.055L181.977 293.495C181.156 291.581 180.382 289.804 179.652 288.163C178.923 286.522 178.308 285.087 177.807 283.856C177.169 282.398 176.599 281.054 176.098 279.823H175.824V362.128H159.555V264.579ZM259.018 312.431C259.018 303.088 260.02 295.25 262.025 288.915C264.076 282.535 266.97 277.408 270.707 273.534C274.49 269.615 279.024 266.812 284.311 265.126C289.597 263.44 295.521 262.597 302.084 262.597C306.505 262.597 310.447 262.825 313.91 263.28C317.419 263.736 320.427 264.237 322.934 264.784C325.805 265.422 328.38 266.129 330.658 266.903V279.276C328.197 279.003 325.554 278.775 322.729 278.593C320.313 278.41 317.556 278.251 314.457 278.114C311.358 277.932 308.168 277.841 304.887 277.841C299.19 277.841 294.473 278.456 290.736 279.687C286.999 280.871 284.037 282.831 281.85 285.565C279.662 288.3 278.113 291.877 277.201 296.298C276.335 300.673 275.902 306.05 275.902 312.431C275.902 318.948 276.358 324.53 277.27 329.179C278.227 333.782 279.776 337.564 281.918 340.526C284.06 343.489 286.885 345.676 290.395 347.089C293.904 348.456 298.233 349.14 303.383 349.14C305.616 349.14 307.644 349.071 309.467 348.935C311.29 348.798 312.839 348.616 314.115 348.388C315.619 348.16 316.941 347.886 318.08 347.567V322.479H300.307V307.509H334.35V357.479C331.661 358.756 328.721 359.895 325.531 360.897C322.797 361.763 319.561 362.538 315.824 363.222C312.133 363.905 308.122 364.247 303.793 364.247C296.729 364.247 290.417 363.45 284.857 361.854C279.343 360.259 274.672 357.479 270.844 353.515C267.016 349.55 264.076 344.241 262.025 337.587C260.02 330.933 259.018 322.548 259.018 312.431Z" fill="url(#paint0_linear_86_3)"/>
<path d="M27.1523 228.208C28.8955 228.447 30.7754 228.652 32.792 228.823C34.5352 228.994 36.5176 229.13 38.7393 229.233C40.9951 229.335 43.3706 229.387 45.8657 229.387C49.1812 229.387 51.813 229.182 53.7612 228.771C55.7095 228.327 57.1963 227.695 58.2217 226.875C59.2471 226.02 59.8965 224.978 60.1699 223.747C60.4775 222.517 60.6313 221.098 60.6313 219.492C60.6313 218.227 60.563 217.082 60.4263 216.057C60.3237 214.997 60.0503 214.057 59.606 213.237C59.1616 212.417 58.5293 211.716 57.709 211.135C56.8887 210.52 55.7607 210.024 54.3252 209.648L39.4058 205.751C37.0474 205.136 35.0479 204.316 33.4072 203.291C31.7666 202.231 30.4336 200.898 29.4082 199.292C28.417 197.685 27.6821 195.754 27.2036 193.498C26.7593 191.208 26.5371 188.525 26.5371 185.449C26.5371 181.826 27.084 178.698 28.1777 176.066C29.2715 173.4 30.8096 171.213 32.792 169.504C34.8086 167.795 37.2354 166.53 40.0723 165.71C42.9092 164.89 46.0708 164.479 49.5571 164.479C52.4624 164.479 55.1113 164.65 57.5039 164.992C59.9307 165.3 62.0156 165.642 63.7588 166.018C65.8096 166.462 67.6724 166.958 69.3472 167.504V176.989C67.8091 176.784 66.1855 176.596 64.4766 176.425C63.0068 176.254 61.3491 176.118 59.5034 176.015C57.6919 175.878 55.812 175.81 53.8638 175.81C50.8218 175.81 48.3267 175.913 46.3784 176.118C44.4302 176.323 42.8921 176.75 41.7642 177.399C40.6362 178.049 39.8501 178.972 39.4058 180.168C38.9614 181.364 38.7393 182.954 38.7393 184.936C38.7393 186.03 38.7905 187.004 38.8931 187.858C39.0298 188.713 39.3032 189.465 39.7134 190.114C40.1577 190.764 40.7729 191.328 41.5591 191.806C42.3794 192.285 43.4731 192.729 44.8403 193.139L58.7344 197.138C60.5117 197.651 62.084 198.198 63.4512 198.779C64.8525 199.326 66.0659 199.992 67.0913 200.778C68.1167 201.53 68.9883 202.419 69.7061 203.444C70.458 204.47 71.0562 205.7 71.5005 207.136C71.9448 208.537 72.2695 210.195 72.4746 212.109C72.6797 214.023 72.7822 216.228 72.7822 218.723C72.7822 222.619 72.4404 225.969 71.7568 228.771C71.1074 231.54 69.8599 233.813 68.0142 235.59C66.1685 237.333 63.6221 238.615 60.375 239.436C57.1621 240.29 52.9922 240.717 47.8652 240.717C43.9004 240.717 40.6021 240.529 37.9702 240.153C35.3726 239.812 33.2534 239.418 31.6128 238.974C29.7329 238.461 28.2461 237.88 27.1523 237.231V228.208ZM100.468 177.297H78.5244V165.966H134.818V177.297H112.67V239.128H100.468V177.297ZM171.425 240.717C168.28 240.717 165.358 240.495 162.658 240.051C159.958 239.606 157.497 238.837 155.275 237.744C153.053 236.616 151.071 235.129 149.328 233.283C147.619 231.438 146.166 229.113 144.97 226.311C143.773 223.474 142.868 220.124 142.252 216.262C141.637 212.399 141.33 207.905 141.33 202.778C141.33 195.087 142.013 188.764 143.38 183.808C144.748 178.852 146.73 174.956 149.328 172.119C151.925 169.248 155.087 167.265 158.812 166.171C162.538 165.043 166.742 164.479 171.425 164.479C174.535 164.479 177.44 164.719 180.141 165.197C182.841 165.676 185.302 166.479 187.523 167.607C189.745 168.735 191.71 170.256 193.419 172.17C195.128 174.05 196.564 176.408 197.726 179.245C198.922 182.082 199.828 185.449 200.443 189.345C201.059 193.208 201.366 197.685 201.366 202.778C201.366 207.871 201.059 212.348 200.443 216.21C199.828 220.073 198.922 223.422 197.726 226.259C196.564 229.062 195.128 231.403 193.419 233.283C191.71 235.129 189.745 236.599 187.523 237.692C185.302 238.786 182.841 239.555 180.141 240C177.44 240.478 174.535 240.717 171.425 240.717ZM171.425 229.387C174.774 229.387 177.543 228.994 179.73 228.208C181.952 227.421 183.712 226.037 185.011 224.055C186.31 222.038 187.216 219.321 187.729 215.903C188.275 212.451 188.549 208.076 188.549 202.778C188.549 197.446 188.275 193.054 187.729 189.602C187.216 186.149 186.31 183.415 185.011 181.398C183.712 179.348 181.952 177.929 179.73 177.143C177.543 176.323 174.774 175.913 171.425 175.913C168.075 175.913 165.29 176.323 163.068 177.143C160.846 177.929 159.086 179.348 157.787 181.398C156.488 183.415 155.565 186.149 155.019 189.602C154.506 193.054 154.25 197.446 154.25 202.778C154.25 208.076 154.506 212.451 155.019 215.903C155.565 219.321 156.488 222.038 157.787 224.055C159.086 226.037 160.846 227.421 163.068 228.208C165.29 228.994 168.075 229.387 171.425 229.387ZM241.767 240.41C239.408 240.41 237.05 240.188 234.691 239.743C232.367 239.299 230.146 238.53 228.026 237.436C225.941 236.342 223.993 234.873 222.182 233.027C220.37 231.147 218.798 228.789 217.465 225.952C216.132 223.081 215.089 219.68 214.337 215.749C213.585 211.818 213.209 207.221 213.209 201.958C213.209 196.899 213.637 192.473 214.491 188.679C215.346 184.851 216.491 181.552 217.926 178.784C219.362 176.015 221.037 173.742 222.951 171.965C224.865 170.153 226.881 168.718 229 167.658C231.12 166.599 233.273 165.864 235.46 165.454C237.648 165.009 239.75 164.787 241.767 164.787C245.185 164.787 248.158 164.958 250.688 165.3C253.217 165.642 255.336 166.018 257.045 166.428C259.027 166.906 260.719 167.453 262.121 168.068V176.887C260.719 176.784 259.215 176.682 257.609 176.579C256.242 176.511 254.669 176.442 252.892 176.374C251.149 176.271 249.32 176.22 247.406 176.22C245.663 176.22 243.92 176.289 242.177 176.425C240.468 176.562 238.81 176.921 237.204 177.502C235.631 178.049 234.162 178.869 232.794 179.963C231.427 181.057 230.231 182.561 229.206 184.475C228.214 186.354 227.428 188.713 226.847 191.55C226.3 194.387 226.027 197.822 226.027 201.855C226.027 206.093 226.317 209.716 226.898 212.724C227.479 215.732 228.283 218.244 229.308 220.261C230.333 222.277 231.53 223.867 232.897 225.029C234.264 226.191 235.751 227.08 237.357 227.695C238.964 228.276 240.639 228.652 242.382 228.823C244.125 228.959 245.868 229.028 247.611 229.028C249.867 229.028 251.918 228.994 253.764 228.925C255.609 228.857 257.182 228.789 258.48 228.72C260.019 228.618 261.403 228.515 262.633 228.413V237.231C261.129 237.846 259.352 238.376 257.301 238.82C255.524 239.23 253.336 239.589 250.739 239.897C248.175 240.239 245.185 240.41 241.767 240.41ZM277.143 165.966H289.447V195.856H300.727L317.799 165.966H332.001L311.596 201.342L333.18 239.128H318.773L300.727 207.29H289.447V239.128H277.143V165.966Z" fill="white"/>
<path fill-rule="evenodd" clip-rule="evenodd" d="M139 80.4481L107 105.344V140.743H139V80.4481ZM145 140.743H177V50.8843L145 75.7801V140.743ZM28 48.5503L61 74.2241V140.743H28L28 48.5503ZM101 140.743H67V78.8921L101 105.344V140.743ZM291 80.4481L259 105.344V140.743H291V80.4481ZM297 140.743H332L332 48.5503L297 75.7801V140.743ZM183 50.8843L215 75.7801V140.743H183V50.8843ZM253 140.743H221V80.4481L253 105.344V140.743Z" fill="#FFC700"/>
<path fill-rule="evenodd" clip-rule="evenodd" d="M28.0001 30.1415L102.145 88.4941L104.007 89.96L105.864 88.4871L180 29.686L254.136 88.4871L255.991 89.9587L257.854 88.4957L336.263 26.8928L345.11 38.1536L358 6L323.709 10.9139L332.557 22.1747L256.009 82.3146L181.864 23.5065L180 22.0278L178.136 23.5065L103.993 82.3133L28.0001 22.5062V30.1415Z" fill="white"/>
</g>
<defs>
<filter id="filter0_d_86_3" x="21.5371" y="5" width="341.463" height="368.247" filterUnits="userSpaceOnUse" color-interpolation-filters="sRGB">
<feFlood flood-opacity="0" result="BackgroundImageFix"/>
<feColorMatrix in="SourceAlpha" type="matrix" values="0 0 0 0 0 0 0 0 0 0 0 0 0 0 0 0 0 0 127 0" result="hardAlpha"/>
<feOffset dy="4"/>
<feGaussianBlur stdDeviation="2.5"/>
<feComposite in2="hardAlpha" operator="out"/>
<feColorMatrix type="matrix" values="0 0 0 0 0 0 0 0 0 0 0 0 0 0 0 0 0 0 0.25 0"/>
<feBlend mode="normal" in2="BackgroundImageFix" result="effect1_dropShadow_86_3"/>
<feBlend mode="normal" in="SourceGraphic" in2="effect1_dropShadow_86_3" result="shape"/>
</filter>
<linearGradient id="paint0_linear_86_3" x1="189" y1="221.128" x2="189" y2="396.128" gradientUnits="userSpaceOnUse">
<stop offset="0.005" stop-color="#FFC700"/>
<stop offset="0.51" stop-color="white"/>
<stop offset="0.56" stop-color="white"/>
<stop offset="0.5601" stop-color="#FFC700"/>
<stop offset="1" stop-color="#FFC700"/>
</linearGradient>
</defs>
</svg>
